<?xml version="1.0" encoding="utf-8"?>
<!-- Generator: Adobe Illustrator 22.1.0, SVG Export Plug-In . SVG Version: 6.00 Build 0)  -->
<svg version="1.1" id="Слой_1" xmlns="http://www.w3.org/2000/svg" xmlns:xlink="http://www.w3.org/1999/xlink" x="0px" y="0px"
	 viewBox="0 0 24 24" style="enable-background:new 0 0 24 24;" xml:space="preserve">
<style type="text/css">
	.st0{fill:#BDC3C7;}
	.st1{fill:#FFFFFF;}
</style>
<path class="st0" d="M24,21c0,1.7-1.3,3-3,3H3c-1.7,0-3-1.3-3-3V3c0-1.7,1.3-3,3-3h18c1.7,0,3,1.3,3,3V21z"/>
<path class="st1" d="M2.7,17.8c1.7,1.1,3.7,1.7,5.8,1.7c7,0,10.8-5.8,10.8-10.8l0-0.5c0.7-0.5,1.4-1.2,1.9-2
	c-0.7,0.3-1.4,0.5-2.2,0.6c0.8-0.5,1.4-1.2,1.7-2.1c-0.7,0.4-1.5,0.8-2.4,0.9c-0.7-0.7-1.7-1.2-2.8-1.2c-2.1,0-3.8,1.7-3.8,3.8
	c0,0.3,0,0.6,0.1,0.9C8.7,9,5.9,7.5,4,5.2C3.7,5.7,3.5,6.4,3.5,7.1c0,1.3,0.7,2.5,1.7,3.2c-0.6,0-1.2-0.2-1.7-0.5v0
	c0,1.8,1.3,3.4,3,3.7c-0.3,0.1-0.7,0.1-1,0.1c-0.2,0-0.5,0-0.7-0.1c0.5,1.5,1.9,2.6,3.5,2.6c-1.3,1-2.9,1.6-4.7,1.6
	C3.3,17.9,3,17.8,2.7,17.8"/>
</svg>
