<?xml version="1.0" encoding="utf-8"?>
<!-- Generator: Adobe Illustrator 22.1.0, SVG Export Plug-In . SVG Version: 6.00 Build 0)  -->
<svg version="1.1" id="Слой_1" xmlns="http://www.w3.org/2000/svg" xmlns:xlink="http://www.w3.org/1999/xlink" x="0px" y="0px"
	 viewBox="0 0 24 24" style="enable-background:new 0 0 24 24;" xml:space="preserve">
<style type="text/css">
	.st0{fill:#BDC3C7;}
	.st1{fill:#FFFFFF;}
</style>
<path class="st0" d="M24,21c0,1.7-1.3,3-3,3H3c-1.7,0-3-1.3-3-3V3c0-1.7,1.3-3,3-3h18c1.7,0,3,1.3,3,3V21z"/>
<path class="st1" d="M14.1,22v-9.1H12V10h2.1V7.3c0-2.1,1-4.1,4.1-4.1c1.3,0,2.2,0.1,2.2,0.1l-0.1,3c0,0-1.1,0-2.1,0
	c-1.1,0-1.3,0.5-1.3,1.4v2.4h3.6l-0.1,2.9h-3.4V22L14.1,22z"/>
</svg>
