<svg xmlns="http://www.w3.org/2000/svg" width="42" height="71"><path opacity=".65" fill="#fff" d="M33.734.9h-11.05C11.83.9 2.618 8.766 2.618 24.037c0 9.163 3.521 16.05 11.468 19.38L.193 68.828c-.483.834 0 1.48.774 1.48h7.716c.58 0 .969-.187 1.162-.646L22.484 45.08h3.604v24.584c0 .275.293.646.678.646h7.26c.582 0 .779-.276.779-.738V1.826C34.803 1.177 34.416.9 33.734.9zM25.92 37.291h-3.379c-5.314 0-10.465-5.021-10.465-14.242 0-9.604 4.83-16.023 9.736-16.023h4.105l.003 30.265z"/><path fill="#DAE1ED" d="M33.098 2.194H22.861c-10.049 0-18.577 7.711-18.577 22.395 0 8.811 4.132 15.308 11.489 18.509L2.043 67.66c-.447.802 0 1.424.719 1.424h6.369c.538 0 .896-.178 1.077-.621l12.476-24.119h4.488v24.119c0 .266.271.621.627.621h5.562c.541 0 .723-.266.723-.71V3.083c0-.623-.359-.889-.986-.889zm-5.926 36.458H23.4c-5.924 0-11.668-4.272-11.668-14.951 0-11.126 5.389-15.664 10.859-15.664h4.58v30.615z"/><path opacity=".1" d="M33.068 3.083l-.002 64.747-4.963.091.039-23.813.002-.998-.998-.004-4.785-.021-.609-.002-.281.543L8.956 67.828l-.03.061-.003.008-.155.015-6.178-.003 13.693-24.496.539-.964-1.014-.441C8.788 38.95 4.92 32.702 4.92 24.415c0-12.907 6.9-21.248 17.588-21.248l10.56-.084M23.039 39.477h5.113V6.86h-5.924c-8.754 0-11.858 8.977-11.858 16.664 0 7.359 3.318 15.953 12.669 15.953M33.084 2.083L22.5 2.167c-10.05 0-18.58 7.562-18.58 22.248 0 8.81 4.132 15.306 11.489 18.508L1.68 67.484c-.447.803 0 1.425.719 1.425h6.369c.539 0 .897-.179 1.078-.621L22.36 44.085l4.787.021-.041 24.203c0 .268.27.621.627.621l5.619-.104c.541 0 .721-.266.721-.71V2.973c-.005-.623-.362-.89-.989-.89zM23.039 38.477c-5.926 0-11.669-4.271-11.669-14.952 0-11.126 5.387-15.664 10.858-15.664h4.924v30.616h-4.113z"/></svg>