<svg xmlns="http://www.w3.org/2000/svg" viewBox="0 0 67.4 25.8"><path d="M22.9 6.7v16h-2.4v-7.2h-3.7v7.2h-2.5v-16h2.5v6.8h3.7V6.7h2.4zm12.7 19.1h-2.2v-3.1h-6.8v3.1h-2.2v-5.2h1c.4-.8.6-1.8.9-2.8.2-1 .4-2.1.5-3.2.1-1.1.2-2.2.2-3.3V6.7h7.4v13.9h1.3c-.1 0-.1 5.2-.1 5.2zm10.8-4.2c-.5.4-1.1.7-1.7 1-.7.2-1.4.4-2.2.4-1.6 0-2.9-.6-3.9-1.9-1-1.3-1.4-3.2-1.4-5.6 0-1.3.1-2.5.3-3.6s.5-2 .9-2.8c.4-.8.9-1.4 1.5-1.9.6-.4 1.3-.7 2.2-.7.7 0 1.3.1 1.8.4.5.3 1 .7 1.4 1.3.4.6.7 1.4.9 2.3.2.9.3 2.1.3 3.4v1.4h-6.7c0 1.8.3 3.2.7 4.1.5.9 1.2 1.4 2.2 1.4.7 0 1.3-.1 1.9-.4.5-.2 1-.5 1.3-.7l.5 1.9zm5-6.9v8h-2.5v-16h2.5v7.4l3.8-7.4h2.5l-4 7.5 4.5 8.5h-2.7l-4.1-8zm12.7 8.2c-1.7 0-3.1-.7-4-2s-1.5-3.4-1.5-6.2c0-1.2.1-2.4.4-3.4.2-1 .6-1.9 1.1-2.6.5-.7 1.1-1.3 1.8-1.6.7-.4 1.5-.6 2.5-.6.7 0 1.3.1 1.7.2l1.2.6-.3 2.3c-.3-.3-.7-.6-1.2-.8-.5-.2-.9-.3-1.4-.3-1.1 0-1.8.5-2.4 1.5-.6 1-.9 2.5-.9 4.5s.2 3.6.7 4.6c.5 1.1 1.2 1.6 2.2 1.6.6 0 1.1-.1 1.6-.3.4-.2.8-.4 1.1-.7l.6 1.8c-.3.5-.8.8-1.3 1.1-.6.2-1.2.3-1.9.3zM41.9 8.5c-.8 0-1.3.4-1.6 1.3s-.5 2-.6 3.4h4.1c0-.7 0-1.3-.1-1.9-.1-.6-.2-1.1-.3-1.5-.1-.4-.3-.8-.6-1-.2-.2-.5-.3-.9-.3zm-10 .2h-2.8v3.1c0 1-.1 2-.2 3.1-.1 1-.3 2.1-.4 3.1-.2 1-.5 1.9-.8 2.8h4.2V8.7zM6.7 14l-3.9 8.7H0l4.2-9.3c-1-.5-1.8-1.3-2.4-2.2-.6-1-.9-2.3-.9-4 0-1.2.2-2.2.5-3.1.3-.9.8-1.6 1.4-2.2.6-.6 1.3-1 2.1-1.3C5.8.1 6.6 0 7.5 0h3.6v22.7H8.7V14h-2zm2-11.9H7.4c-.5 0-1 .1-1.4.3-.5.1-.9.4-1.2.8-.4.4-.7.9-.9 1.5-.2.7-.4 1.5-.4 2.4 0 .9.1 1.7.3 2.3.2.6.5 1.1.9 1.5.3.4.8.6 1.2.8s1 .2 1.5.2h1.3V2.1z" fill="#fff"/></svg>