<svg xmlns="http://www.w3.org/2000/svg" viewBox="0 0 122.5 27.7"><path d="M8.3 1.3H1.6v21.4H0V0h9.9v22.7H8.3V1.3zm5.6 26.4H13l-.2-1.4c.1 0 .3.1.4.1h.6c.6 0 1-.2 1.4-.7.4-.5.7-1.2.9-2.1l.1-.5-4-16.4h1.5l2.5 10.4c.1.6.3 1.2.4 1.8l.3 1.8h.1c.1-.6.2-1.2.4-1.8.1-.6.3-1.2.4-1.8l2.5-10.4h1.3l-4.1 16.8c-.1.5-.3 1.1-.5 1.6s-.5 1-.7 1.3c-.3.4-.6.7-1 1-.4.2-.9.3-1.4.3zM28 7.9v14.7h-1.5V7.9h-3.7V6.7h8.9v1.2H28zm6.1 7c0 2.2.3 3.9.9 5 .6 1.1 1.4 1.7 2.6 1.7.5 0 1-.1 1.4-.3.4-.2.7-.4 1-.6.3-.2.6-.5.8-.9l.5 1.2c-.3.4-.6.7-.9.9-.3.2-.7.4-1.2.6-.5.2-1 .3-1.7.3-1.7 0-2.9-.7-3.7-2.2-.8-1.5-1.2-3.5-1.2-6.1 0-1.3.1-2.5.3-3.5.2-1 .6-1.9 1-2.6.4-.7.9-1.3 1.5-1.6s1.2-.6 1.9-.6 1.3.2 1.9.5c.5.4 1 .9 1.4 1.6.4.7.6 1.6.8 2.7s.2 2.3 0 3.7l-7.3.2zm3.2-7.3c-.8 0-1.6.5-2.2 1.6s-.9 2.6-1 4.6h5.8c.1-2.1-.1-3.7-.6-4.7s-1.2-1.5-2-1.5zm6.8-.9h1.5v14.8h4.3V6.7h1.5v14.8h4.3V6.7h1.5v16H44.1v-16zm17.3 8.2c0 2.2.3 3.9.9 5 .6 1.1 1.4 1.7 2.6 1.7.5 0 1-.1 1.4-.3.4-.2.7-.4 1-.6.3-.2.6-.5.8-.9l.5 1.2c-.3.4-.6.7-.9.9-.3.2-.7.4-1.2.6-.5.2-1 .3-1.7.3-1.7 0-2.9-.7-3.7-2.2-.8-1.5-1.2-3.5-1.2-6.1 0-1.3.1-2.5.3-3.5.2-1 .6-1.9 1-2.6.4-.7.9-1.3 1.5-1.6.6-.4 1.2-.6 1.9-.6s1.3.2 1.9.5c.6.4 1 .9 1.4 1.6.4.7.6 1.6.8 2.7.2 1.1.2 2.3 0 3.7l-7.3.2zm3.2-7.3c-.8 0-1.6.5-2.2 1.6-.6 1-.9 2.6-1 4.6h5.8c.1-2.1-.1-3.7-.6-4.7s-1.2-1.5-2-1.5zm11.3 14.1c.5 0 1-.1 1.3-.3.4-.2.7-.4 1-.6.3-.2.6-.5.8-.9l.5 1.2c-.2.3-.5.6-.9.9-.3.2-.7.4-1.2.6-.5.2-1 .3-1.6.3-1.6 0-2.8-.7-3.7-2.2-.9-1.4-1.3-3.5-1.3-6.1 0-2.6.4-4.7 1.3-6.1.9-1.5 2.1-2.2 3.8-2.2.8 0 1.5.1 2.1.4.6.3 1 .6 1.4 1.1L79 9.4c-.4-.5-.8-.9-1.3-1.3s-1.1-.5-1.8-.5c-1.2 0-2.1.6-2.7 1.8-.6 1.2-.9 3-.9 5.2s.3 3.9.9 5.1c.6 1.4 1.5 2 2.7 2zM86 7.9v14.7h-1.5V7.9h-3.7V6.7h8.9v1.2H86zm6.1 14.8v-16h3.4c1.4 0 2.5.3 3.2 1s1.1 1.6 1.1 2.9c0 .8-.2 1.5-.5 2.2s-.9 1.1-1.7 1.5c1 .3 1.8.8 2.3 1.4.5.7.7 1.5.7 2.4 0 1.6-.5 2.7-1.4 3.5-.9.7-2.1 1.1-3.6 1.1h-3.5zm1.5-14.8v5.9h1.8c.9 0 1.6-.2 2.2-.7.5-.5.8-1.3.8-2.4 0-1-.3-1.7-.8-2.1-.5-.4-1.3-.6-2.2-.6l-1.8-.1zm0 7v6.6h2c1 0 1.9-.3 2.5-.7.7-.5 1-1.4 1-2.6 0-1.2-.3-2-.9-2.5-.6-.5-1.5-.8-2.6-.8h-2zm16.9-3.4v-1.2c0-.3.1-.7.1-1h-.1c-.1.4-.2.7-.4 1-.2.3-.3.7-.5 1l-5.2 11.3h-1.3v-16h1.4v12.3c0 .4-.1.7-.1 1.1h.1c.1-.4.2-.7.4-1.1.2-.4.3-.7.5-1.1l5.2-11.2h1.3v16h-1.4V11.5zm10.5 4V7.9h-1.1c-.9 0-1.7.3-2.3.9-.6.6-.9 1.6-.9 2.9 0 1.3.3 2.3.8 2.9.6.6 1.3.9 2.3.9h1.2zm-1.9 1.2l-2.9 6h-1.6l3.2-6.4c-.8-.3-1.4-.8-1.9-1.6s-.7-1.8-.7-2.9c0-.9.1-1.6.4-2.3.2-.6.6-1.2 1-1.6.4-.4.9-.7 1.5-.9.6-.2 1.2-.3 1.8-.3h2.7v16H121v-6h-1.9z" fill="#fff"/></svg>