<?xml version="1.0" encoding="utf-8"?>
<!-- Generator: Adobe Illustrator 22.1.0, SVG Export Plug-In . SVG Version: 6.00 Build 0)  -->
<svg version="1.1" id="Слой_1" xmlns="http://www.w3.org/2000/svg" xmlns:xlink="http://www.w3.org/1999/xlink" x="0px" y="0px"
	 viewBox="0 0 122.5 27.7" style="enable-background:new 0 0 122.5 27.7;" xml:space="preserve">
<style type="text/css">
	.st0{fill:#FFFFFF;}
</style>
<path class="st0" d="M8.3,1.3H1.6v21.4H0V0h9.9v22.7H8.3V1.3z M13.9,27.7c-0.2,0-0.3,0-0.5,0c-0.1,0-0.3,0-0.4,0l-0.2-1.4
	c0.1,0,0.3,0.1,0.4,0.1c0.2,0,0.3,0,0.6,0c0.6,0,1-0.2,1.4-0.7c0.4-0.5,0.7-1.2,0.9-2.1l0.1-0.5l-4-16.4h1.5l2.5,10.4
	c0.1,0.6,0.3,1.2,0.4,1.8c0.1,0.6,0.2,1.2,0.3,1.8h0.1c0.1-0.6,0.2-1.2,0.4-1.8c0.1-0.6,0.3-1.2,0.4-1.8l2.5-10.4h1.3l-4.1,16.8
	c-0.1,0.5-0.3,1.1-0.5,1.6c-0.2,0.5-0.5,1-0.7,1.3c-0.3,0.4-0.6,0.7-1,1C14.9,27.6,14.4,27.7,13.9,27.7z M28,7.9v14.7h-1.5V7.9h-3.7
	V6.7h8.9v1.2H28L28,7.9z M34.1,14.9c0,2.2,0.3,3.9,0.9,5c0.6,1.1,1.4,1.7,2.6,1.7c0.5,0,1-0.1,1.4-0.3c0.4-0.2,0.7-0.4,1-0.6
	c0.3-0.2,0.6-0.5,0.8-0.9l0.5,1.2c-0.3,0.4-0.6,0.7-0.9,0.9c-0.3,0.2-0.7,0.4-1.2,0.6c-0.5,0.2-1,0.3-1.7,0.3
	c-1.7,0-2.9-0.7-3.7-2.2c-0.8-1.5-1.2-3.5-1.2-6.1c0-1.3,0.1-2.5,0.3-3.5c0.2-1,0.6-1.9,1-2.6c0.4-0.7,0.9-1.3,1.5-1.6
	s1.2-0.6,1.9-0.6c0.7,0,1.3,0.2,1.9,0.5c0.5,0.4,1,0.9,1.4,1.6c0.4,0.7,0.6,1.6,0.8,2.7s0.2,2.3,0,3.7L34.1,14.9L34.1,14.9z
	 M37.3,7.6c-0.8,0-1.6,0.5-2.2,1.6s-0.9,2.6-1,4.6h5.8c0.1-2.1-0.1-3.7-0.6-4.7C38.8,8.1,38.1,7.6,37.3,7.6L37.3,7.6z M44.1,6.7h1.5
	v14.8h4.3V6.7h1.5v14.8h4.3V6.7h1.5v16H44.1L44.1,6.7L44.1,6.7z M61.4,14.9c0,2.2,0.3,3.9,0.9,5c0.6,1.1,1.4,1.7,2.6,1.7
	c0.5,0,1-0.1,1.4-0.3c0.4-0.2,0.7-0.4,1-0.6c0.3-0.2,0.6-0.5,0.8-0.9l0.5,1.2c-0.3,0.4-0.6,0.7-0.9,0.9c-0.3,0.2-0.7,0.4-1.2,0.6
	c-0.5,0.2-1,0.3-1.7,0.3c-1.7,0-2.9-0.7-3.7-2.2c-0.8-1.5-1.2-3.5-1.2-6.1c0-1.3,0.1-2.5,0.3-3.5c0.2-1,0.6-1.9,1-2.6
	c0.4-0.7,0.9-1.3,1.5-1.6c0.6-0.4,1.2-0.6,1.9-0.6c0.7,0,1.3,0.2,1.9,0.5c0.6,0.4,1,0.9,1.4,1.6c0.4,0.7,0.6,1.6,0.8,2.7
	c0.2,1.1,0.2,2.3,0,3.7L61.4,14.9L61.4,14.9z M64.6,7.6c-0.8,0-1.6,0.5-2.2,1.6c-0.6,1-0.9,2.6-1,4.6h5.8c0.1-2.1-0.1-3.7-0.6-4.7
	C66.1,8.1,65.4,7.6,64.6,7.6L64.6,7.6z M75.9,21.7c0.5,0,1-0.1,1.3-0.3c0.4-0.2,0.7-0.4,1-0.6c0.3-0.2,0.6-0.5,0.8-0.9l0.5,1.2
	c-0.2,0.3-0.5,0.6-0.9,0.9c-0.3,0.2-0.7,0.4-1.2,0.6c-0.5,0.2-1,0.3-1.6,0.3c-1.6,0-2.8-0.7-3.7-2.2c-0.9-1.4-1.3-3.5-1.3-6.1
	c0-2.6,0.4-4.7,1.3-6.1c0.9-1.5,2.1-2.2,3.8-2.2c0.8,0,1.5,0.1,2.1,0.4c0.6,0.3,1,0.6,1.4,1.1L79,9.4c-0.4-0.5-0.8-0.9-1.3-1.3
	c-0.5-0.4-1.1-0.5-1.8-0.5c-1.2,0-2.1,0.6-2.7,1.8c-0.6,1.2-0.9,3-0.9,5.2c0,2.2,0.3,3.9,0.9,5.1C73.8,21.1,74.7,21.7,75.9,21.7z
	 M86,7.9v14.7h-1.5V7.9h-3.7V6.7h8.9v1.2H86z M92.1,22.7v-16h3.4c1.4,0,2.5,0.3,3.2,1s1.1,1.6,1.1,2.9c0,0.8-0.2,1.5-0.5,2.2
	s-0.9,1.1-1.7,1.5c1,0.3,1.8,0.8,2.3,1.4c0.5,0.7,0.7,1.5,0.7,2.4c0,1.6-0.5,2.7-1.4,3.5c-0.9,0.7-2.1,1.1-3.6,1.1L92.1,22.7
	L92.1,22.7z M93.6,7.9v5.9h1.8c0.9,0,1.6-0.2,2.2-0.7c0.5-0.5,0.8-1.3,0.8-2.4c0-1-0.3-1.7-0.8-2.1c-0.5-0.4-1.3-0.6-2.2-0.6
	L93.6,7.9L93.6,7.9z M93.6,14.9v6.6h2c1,0,1.9-0.3,2.5-0.7c0.7-0.5,1-1.4,1-2.6c0-1.2-0.3-2-0.9-2.5c-0.6-0.5-1.5-0.8-2.6-0.8
	L93.6,14.9L93.6,14.9z M110.5,11.5c0-0.4,0-0.8,0-1.2c0-0.3,0.1-0.7,0.1-1h-0.1c-0.1,0.4-0.2,0.7-0.4,1c-0.2,0.3-0.3,0.7-0.5,1
	l-5.2,11.3h-1.3v-16h1.4v11.1c0,0.4,0,0.8,0,1.2c0,0.4-0.1,0.7-0.1,1.1h0.1c0.1-0.4,0.2-0.7,0.4-1.1c0.2-0.4,0.3-0.7,0.5-1.1
	l5.2-11.2h1.3v16h-1.4L110.5,11.5L110.5,11.5z M121,15.5V7.9h-1.1c-0.9,0-1.7,0.3-2.3,0.9c-0.6,0.6-0.9,1.6-0.9,2.9
	c0,1.3,0.3,2.3,0.8,2.9c0.6,0.6,1.3,0.9,2.3,0.9L121,15.5L121,15.5z M119.1,16.7l-2.9,6h-1.6l3.2-6.4c-0.8-0.3-1.4-0.8-1.9-1.6
	c-0.5-0.8-0.7-1.8-0.7-2.9c0-0.9,0.1-1.6,0.4-2.3c0.2-0.6,0.6-1.2,1-1.6c0.4-0.4,0.9-0.7,1.5-0.9c0.6-0.2,1.2-0.3,1.8-0.3h2.7v16
	H121v-6L119.1,16.7L119.1,16.7z"/>
</svg>
