<?xml version="1.0" encoding="utf-8"?>
<!-- Generator: Adobe Illustrator 22.1.0, SVG Export Plug-In . SVG Version: 6.00 Build 0)  -->
<svg version="1.1" id="Слой_1" xmlns="http://www.w3.org/2000/svg" xmlns:xlink="http://www.w3.org/1999/xlink" x="0px" y="0px"
	 viewBox="0 0 67.4 25.8" style="enable-background:new 0 0 67.4 25.8;" xml:space="preserve">
<style type="text/css">
	.st0{fill:#FFFFFF;}
</style>
<g>
	<path class="st0" d="M22.9,6.7v16h-2.4v-7.2h-3.7v7.2h-2.5v-16h2.5v6.8h3.7V6.7H22.9L22.9,6.7z M35.6,25.8h-2.2v-3.1h-6.8v3.1h-2.2
		v-5.2h1c0.4-0.8,0.6-1.8,0.9-2.8c0.2-1,0.4-2.1,0.5-3.2c0.1-1.1,0.2-2.2,0.2-3.3c0-1.1,0-2.2,0-3.3V6.7h7.4v13.9h1.3
		C35.6,20.6,35.6,25.8,35.6,25.8z M46.4,21.6c-0.5,0.4-1.1,0.7-1.7,1c-0.7,0.2-1.4,0.4-2.2,0.4c-1.6,0-2.9-0.6-3.9-1.9
		c-1-1.3-1.4-3.2-1.4-5.6c0-1.3,0.1-2.5,0.3-3.6s0.5-2,0.9-2.8c0.4-0.8,0.9-1.4,1.5-1.9c0.6-0.4,1.3-0.7,2.2-0.7
		c0.7,0,1.3,0.1,1.8,0.4c0.5,0.3,1,0.7,1.4,1.3c0.4,0.6,0.7,1.4,0.9,2.3c0.2,0.9,0.3,2.1,0.3,3.4v1.4h-6.7c0,1.8,0.3,3.2,0.7,4.1
		c0.5,0.9,1.2,1.4,2.2,1.4c0.7,0,1.3-0.1,1.9-0.4c0.5-0.2,1-0.5,1.3-0.7L46.4,21.6L46.4,21.6z M51.4,14.7v8h-2.5v-16h2.5v7.4
		l3.8-7.4h2.5l-4,7.5l4.5,8.5h-2.7L51.4,14.7L51.4,14.7z M64.1,22.9c-1.7,0-3.1-0.7-4-2s-1.5-3.4-1.5-6.2c0-1.2,0.1-2.4,0.4-3.4
		c0.2-1,0.6-1.9,1.1-2.6c0.5-0.7,1.1-1.3,1.8-1.6c0.7-0.4,1.5-0.6,2.5-0.6c0.7,0,1.3,0.1,1.7,0.2c0.4,0.2,0.8,0.4,1.2,0.6l-0.3,2.3
		c-0.3-0.3-0.7-0.6-1.2-0.8c-0.5-0.2-0.9-0.3-1.4-0.3C63.3,8.5,62.6,9,62,10c-0.6,1-0.9,2.5-0.9,4.5c0,2,0.2,3.6,0.7,4.6
		c0.5,1.1,1.2,1.6,2.2,1.6c0.6,0,1.1-0.1,1.6-0.3c0.4-0.2,0.8-0.4,1.1-0.7l0.6,1.8C67,22,66.5,22.3,66,22.6
		C65.4,22.8,64.8,22.9,64.1,22.9L64.1,22.9z M41.9,8.5c-0.8,0-1.3,0.4-1.6,1.3s-0.5,2-0.6,3.4h4.1c0-0.7,0-1.3-0.1-1.9
		c-0.1-0.6-0.2-1.1-0.3-1.5c-0.1-0.4-0.3-0.8-0.6-1C42.6,8.6,42.3,8.5,41.9,8.5L41.9,8.5z M31.9,8.7h-2.8V9c0,0.8,0,1.8,0,2.8
		c0,1-0.1,2-0.2,3.1c-0.1,1-0.3,2.1-0.4,3.1c-0.2,1-0.5,1.9-0.8,2.8h4.2L31.9,8.7L31.9,8.7z M6.7,14l-3.9,8.7H0l4.2-9.3
		c-1-0.5-1.8-1.3-2.4-2.2c-0.6-1-0.9-2.3-0.9-4c0-1.2,0.2-2.2,0.5-3.1c0.3-0.9,0.8-1.6,1.4-2.2c0.6-0.6,1.3-1,2.1-1.3
		C5.8,0.1,6.6,0,7.5,0h3.6v22.7H8.7V14C8.7,14,6.7,14,6.7,14z M8.7,2.1H7.4c-0.5,0-1,0.1-1.4,0.3C5.5,2.5,5.1,2.8,4.8,3.2
		C4.4,3.6,4.1,4.1,3.9,4.7C3.7,5.4,3.5,6.2,3.5,7.1c0,0.9,0.1,1.7,0.3,2.3C4,10,4.3,10.5,4.7,10.9c0.3,0.4,0.8,0.6,1.2,0.8
		s1,0.2,1.5,0.2h1.3L8.7,2.1L8.7,2.1z"/>
</g>
</svg>
