<svg xmlns="http://www.w3.org/2000/svg" viewBox="0 0 24 24"><path d="M24 21a3 3 0 0 1-3 3H3a3 3 0 0 1-3-3V3a3 3 0 0 1 3-3h18a3 3 0 0 1 3 3v18z"/><path fill="#fff" d="M2.749 17.811a10.736 10.736 0 0 0 5.818 1.707c6.981 0 10.799-5.785 10.799-10.8l-.013-.491a7.655 7.655 0 0 0 1.896-1.966 7.603 7.603 0 0 1-2.18.598 3.801 3.801 0 0 0 1.668-2.1 7.583 7.583 0 0 1-2.407.921 3.789 3.789 0 0 0-2.771-1.198 3.794 3.794 0 0 0-3.696 4.66A10.775 10.775 0 0 1 4.04 5.177a3.797 3.797 0 0 0 1.173 5.067 3.753 3.753 0 0 1-1.72-.476v.047a3.8 3.8 0 0 0 3.044 3.724 3.83 3.83 0 0 1-1.714.065 3.8 3.8 0 0 0 3.545 2.636 7.604 7.604 0 0 1-5.619 1.571"/></svg>