<svg xmlns="http://www.w3.org/2000/svg" viewBox="0 0 24 24"><path d="M5 4h14v17H5V4z" fill="#fff"/><path d="M21 24H3c-1.5 0-3-1.2-3-3V3c0-1.5 1.2-3 3-3h18c1.6 0 3 1.3 3 3v18c0 1.7-1.5 3-3 3zm-3.8-11c-.6-.6-1.3-1-2.2-1.2v-.1c.6-.3 1.2-.7 1.5-1.3.4-.6.5-1.2.5-2 0-.6-.1-1.2-.4-1.7-.3-.5-.7-.9-1.2-1.2-.5-.3-1-.4-1.6-.5H6v15h6c1 0 1.9-.1 2.6-.3s1.3-.5 1.9-.9c.5-.4.9-.8 1.1-1.4.3-.6.4-1.2.4-2 0-1-.3-1.8-.8-2.4zm-4.1 4c-.4.2-.8.3-1.1.3H9.7v-3.8H12c.4 0 .7.1.9.1.4.1 1 .3 1.2.6.2.3.3.6.3 1.1 0 .4-.1.7-.2 1-.1.3-.7.5-1.1.7zm-1-6.6c-.3.1-.5.2-.8.2H9.4V7.5h1.8c.3 0 .6.1.9.2.3.1.5.3.6.6.1.3.2.5.2.7 0 .3-.1.6-.2.9-.1.2-.3.4-.6.5z" fill="#bdc3c7"/></svg>