<svg xmlns="http://www.w3.org/2000/svg" viewBox="0 0 24 24"><path d="M24 21c0 1.7-1.3 3-3 3H3c-1.7 0-3-1.3-3-3V3c0-1.7 1.3-3 3-3h18c1.7 0 3 1.3 3 3v18z" fill="#bdc3c7"/><path d="M2.7 17.8c1.7 1.1 3.7 1.7 5.8 1.7 7 0 10.8-5.8 10.8-10.8v-.5c.7-.5 1.4-1.2 1.9-2-.7.3-1.4.5-2.2.6.8-.5 1.4-1.2 1.7-2.1-.7.4-1.5.8-2.4.9-.7-.7-1.7-1.2-2.8-1.2-2.1 0-3.8 1.7-3.8 3.8 0 .3 0 .6.1.9C8.7 9 5.9 7.5 4 5.2c-.3.5-.5 1.2-.5 1.9 0 1.3.7 2.5 1.7 3.2-.6 0-1.2-.2-1.7-.5 0 1.8 1.3 3.4 3 3.7-.3.1-.7.1-1 .1-.2 0-.5 0-.7-.1.5 1.5 1.9 2.6 3.5 2.6-1.3 1-2.9 1.6-4.7 1.6-.3.2-.6.1-.9.1" fill="#fff"/></svg>