<svg xmlns="http://www.w3.org/2000/svg" width="32" height="32" viewBox="0 0 32 32"><path d="M16 27c-2.2 0-4-1.8-4-4s1.8-4 4-4 4 1.8 4 4-1.8 4-4 4zm0-6c-1.1 0-2 .9-2 2s.9 2 2 2 2-.9 2-2-.9-2-2-2z"/><path d="M22.4 27H9.6L2 18.7c-.8-1.1-1.1-2.4-.8-3.6.4-1.7 1.9-2.7 3.4-2.9.5-2.4 2-3.9 4.5-4.4.7-.1 1.5-.1 2 0 1-1.9 2.7-2.8 4.8-2.8h.2c2.1 0 3.8.9 4.8 2.7.5-.1 1.3-.1 2 0 2.5.4 4.1 2 4.5 4.4 1.5.3 3 1.2 3.4 2.9.3 1.3 0 2.6-.8 3.6L22.4 27zm-11.9-2h11.1l7-7.7c.3-.4.5-1.2.3-1.8-.3-1.4-2.1-1.5-2.3-1.5h-.9l-.1-.9c-.2-2-1.1-3.1-3-3.4-.2 0-.5-.1-.8-.1-.7 0-1.1.1-1.2.1l-.8.3-.4-.8C18.8 7.7 17.7 7 16.1 7H16h-.1c-1.6 0-2.6.7-3.3 2.2l-.5.8-.8-.2s-.5-.1-1.1-.1c-.3 0-.5 0-.8.1-1.9.3-2.8 1.5-3 3.4l-.1.8h-.9c-.2 0-2 0-2.3 1.5-.2.7 0 1.4.4 1.9l7 7.6z"/><path d="M2 25h28v2H2z"/><path d="M16 32c-8.5 0-15-3-15-7h2c0 2.4 5.3 5 13 5s13-2.6 13-5h2c0 4-6.5 7-15 7z"/></svg>