<svg xmlns="http://www.w3.org/2000/svg" width="32" height="32" viewBox="0 0 32 32"><path d="M22 32v-2c3.9 0 7-2.9 7-6.5h2c0 4.7-4 8.5-9 8.5z"/><path d="M29 6h2v17.9h-2zM11 24h5v2h-5zM19.5 21c-2.1 0-4.1-1-5.3-2.8h-1.3C11.6 20 9.6 21 7.5 21 3.9 21 1 18.1 1 14.5S3.9 8 7.5 8h12c3.6 0 6.5 2.9 6.5 6.5S23.1 21 19.5 21zm-7.8-4.7h3.6l.3.5c.8 1.4 2.3 2.3 3.9 2.3 2.5 0 4.5-2 4.5-4.5S22 10 19.5 10h-12C5 10 3 12 3 14.5S5 19 7.5 19c1.6 0 3.1-.9 3.9-2.3l.3-.4z"/><path d="M21.8 32c-4.4 0-8.3-2.7-9.6-6.7l1.9-.6c1 3.1 4.2 5.3 7.7 5.3h.4v2h-.4z"/></svg>