<svg xmlns="http://www.w3.org/2000/svg" width="32" height="32" viewBox="0 0 32 32"><path d="M4.5 26.1l-.5-.9c-1.3-2.2-1.6-4.8-1-7.3.7-2.5 2.2-4.5 4.5-5.8 1.5-.8 3.1-1.3 4.8-1.3 3.4 0 6.6 1.8 8.3 4.8l.5.9-16.6 9.6zm7.7-13.2c-1.3 0-2.6.4-3.8 1-1.7 1-3 2.6-3.5 4.6-.4 1.6-.3 3.3.3 4.8l13-7.5c-1.4-1.8-3.6-2.9-6-2.9z"/><path d="M18.042 31.933L11.674 20.83l1.735-.996 6.367 11.104z"/><path d="M1 30h30v2H1zM26.5 9C24 9 22 7 22 4.5S24 0 26.5 0 31 2 31 4.5 29 9 26.5 9zm0-7C25.1 2 24 3.1 24 4.5S25.1 7 26.5 7 29 5.9 29 4.5 27.9 2 26.5 2z"/></svg>