<svg xmlns="http://www.w3.org/2000/svg" width="27" height="27" viewBox="0 0 27 27"><path d="M23.5 7C21.6 7 20 5.4 20 3.5S21.6 0 23.5 0 27 1.6 27 3.5 25.4 7 23.5 7zm0-5c-.8 0-1.5.7-1.5 1.5S22.7 5 23.5 5 25 4.3 25 3.5 24.3 2 23.5 2zM23.9 27c-1 0-1.9-.1-3.5-.8L.4 15.7l.9-1.8 19.9 10.4c.9.5 1.8.7 1.8.7h3v2h-2.1z"/><path d="M10.6 20.7l-.6-1.9c3-1 5.4-2.4 5.4-3-.1-.3-1.4-1-2.2-1.4-2-1-4.6-2.4-3.8-4.9.8-2.4 3.3-4.4 5.4-5.3.8-.3 1.2-.2 2.2-.2.5 0 1 .1 1 .1.3.2 1 .5 1 .9v5l3.8 1.7-.9 1.8-4.3-2.1c-.3-.2-.6-.5-.6-.9V6c-.5-.2-.9-.2-1.4.1-1.9.7-3.7 2.5-4.3 4-.3.8 1.1 1.6 2.8 2.5 1.7.9 3.2 1.7 3.2 3.1.1 2.5-4.7 4.3-6.7 5z"/><path d="M11.9 8l-10-5.3.9-1.8 10.7 5.7z"/></svg>